<svg version="1.2" xmlns="http://www.w3.org/2000/svg" viewBox="0 0 156 141" width="156" height="141">
	<path id="&lt;Path&gt;" class="s0" d="m8.7 27.2c3.1 0 6.2-0.6 9.1-1.8 2.9-1.2 5.5-3 7.7-5.2 2.2-2.2 4-4.8 5.2-7.7 1.2-2.9 1.8-6 1.8-9.1v-1.3h1.3c9.1 0 18.2 0.1 27.2 0.1 9.1 0.1 18.2 0.2 27.3 0.3l13.6 0.1 13.6 0.2q13.7 0.2 27.3 0.6-13.6 0.3-27.3 0.5l-13.6 0.2-13.6 0.2c-9.1 0.1-18.2 0.2-27.3 0.2-8.6 0.1-17.3 0.1-26 0.1-0.1 3.1-0.8 6.1-1.9 8.9-1.3 3.2-3.3 6.1-5.7 8.5-2.5 2.5-5.4 4.4-8.6 5.7-2.8 1.2-5.8 1.9-8.8 2l-0.2 25.9-0.2 27.1c-0.1 9.1-0.2 18.1-0.4 27.2q-0.2 13.5-0.5 27.1-0.3-13.6-0.5-27.1c-0.2-9.1-0.3-18.1-0.4-27.2l-0.2-27.1-0.2-27.1v-1.3z" fill="#ECEFF4"/>
</svg>